<svg xmlns="http://www.w3.org/2000/svg" id="Layer_1" data-name="Layer 1" viewBox="0 0 46.08 46.08"><defs><style>      .cls-1 {        fill: #fb9110;        fill-rule: evenodd;      }    </style></defs><path class="cls-1" d="M46.08,.04L.04,0l-.04,46.04,46.04,.04L46.08,.04ZM12.5,7.64c0-.25,.05-.5,.15-.73,.1-.23,.24-.44,.42-.62,.18-.18,.39-.32,.62-.42,.23-.1,.48-.15,.73-.15H31.69c.51,.01,1,.22,1.36,.58,.36,.36,.56,.85,.56,1.36l-.02,30.69c0,.25-.05,.5-.15,.73-.1,.23-.24,.44-.42,.62-.18,.18-.39,.32-.62,.42-.23,.1-.48,.15-.73,.15H14.39c-.25-.01-.5-.06-.73-.16-.23-.1-.44-.24-.62-.42-.18-.18-.32-.39-.42-.62-.1-.23-.15-.48-.15-.73l.03-30.69Zm10.57,1.95c-.25,0-.5,.1-.68,.28-.18,.18-.28,.42-.28,.68v3.84c0,.25,.1,.5,.28,.68,.18,.18,.42,.28,.68,.28,.25,0,.5-.1,.68-.28,.18-.18,.28-.42,.28-.68v-3.84c0-.25-.1-.5-.28-.68-.18-.18-.42-.28-.68-.28Zm0,10.55c-.25,0-.5,.1-.68,.28-.18,.18-.28,.42-.28,.68v3.84c0,.25,.1,.5,.28,.68,.18,.18,.42,.28,.68,.28,.25,0,.5-.1,.68-.28,.18-.18,.28-.42,.28-.68v-3.84c0-.25-.1-.5-.28-.68-.18-.18-.42-.28-.68-.28Zm-.97,11.51c0-.13,.03-.25,.07-.37,.05-.12,.12-.22,.21-.31,.09-.09,.19-.16,.31-.21,.12-.05,.24-.07,.37-.07,.13,0,.25,.02,.37,.07,.12,.05,.22,.12,.31,.21,.09,.09,.16,.19,.21,.31,.05,.12,.07,.24,.07,.37v3.84c0,.25-.1,.5-.28,.68s-.42,.28-.68,.28c-.25,0-.5-.1-.68-.28-.18-.18-.28-.42-.28-.68v-3.84Z"></path></svg>