<svg xmlns="http://www.w3.org/2000/svg" width="59" height="33" viewBox="0 0 59 33" fill="none"><path d="M21.625 0.625V5.875H16.375V0.625H11.125V5.875H5.875V0.625H0.625V32.125H5.875V26.875H11.125V32.125H16.375V26.875H21.625V32.125H26.875V26.875H32.125V32.125H37.375V26.875H42.625V32.125H47.875V26.875H53.125V32.125H58.375V0.625H53.125V5.875H47.875V0.625H42.625V5.875H37.375V0.625H32.125V5.875H26.875V0.625H21.625ZM5.875 11.125H11.125V21.625H5.875V11.125ZM16.375 11.125H21.625V21.625H16.375V11.125ZM26.875 11.125H32.125V21.625H26.875V11.125ZM37.375 11.125H42.625V21.625H37.375V11.125ZM47.875 11.125H53.125V21.625H47.875V11.125Z" fill="white"></path></svg>