<svg xmlns="http://www.w3.org/2000/svg" width="63" height="63" viewBox="0 0 63 63" fill="none"><path d="M29.9375 56.5L45.125 26.0938H34.625V6.5L19 36.9062H29.9375V56.5ZM31.5 0.25C40.0937 0.25 47.4375 3.375 53.5312 9.46875C59.625 15.5625 62.75 22.9062 62.75 31.5C62.75 40.0937 59.625 47.4375 53.5312 53.5312C47.4375 59.625 40.0937 62.75 31.5 62.75C22.9062 62.75 15.5625 59.625 9.46875 53.5312C3.375 47.4375 0.25 40.0937 0.25 31.5C0.25 22.9062 3.375 15.5625 9.46875 9.46875C15.5625 3.375 22.9062 0.25 31.5 0.25Z" fill="white"></path></svg>