<svg xmlns="http://www.w3.org/2000/svg" width="47" height="47" viewBox="0 0 47 47" fill="none"><path fill-rule="evenodd" clip-rule="evenodd" d="M46.06 0.978309L0.0191832 0.939941L-0.0191841 46.9808L46.0216 47.0191L46.06 0.978309ZM12.4819 8.58464C12.4821 8.33271 12.532 8.0833 12.6286 7.85065C12.7253 7.618 12.8668 7.40666 13.0451 7.22871C13.2234 7.05075 13.435 6.90965 13.6679 6.81348C13.9007 6.7173 14.1502 6.66793 14.4021 6.66819L31.6674 6.68257C32.1761 6.68308 32.6637 6.88555 33.023 7.24547C33.3824 7.60538 33.5842 8.09328 33.5839 8.6019L33.559 39.2958C33.5588 39.5478 33.5091 39.7973 33.4125 40.0301C33.3159 40.2628 33.1744 40.4743 32.9961 40.6523C32.8177 40.8304 32.6061 40.9716 32.3732 41.0678C32.1403 41.164 31.8907 41.2134 31.6387 41.2132L14.3734 41.1988C14.1214 41.1985 13.872 41.1487 13.6394 41.052C13.4067 40.9554 13.1954 40.8139 13.0174 40.6356C12.8395 40.4573 12.6984 40.2456 12.6022 40.0128C12.506 39.7799 12.4567 39.5304 12.4569 39.2785L12.4819 8.58464ZM23.0501 10.5318C22.7961 10.5318 22.5524 10.6326 22.3726 10.812C22.1927 10.9915 22.0915 11.235 22.091 11.489L22.0871 15.3258C22.0869 15.5802 22.1877 15.8242 22.3674 16.0043C22.5471 16.1844 22.791 16.2857 23.0453 16.2859C23.2997 16.2862 23.5438 16.1854 23.7239 16.0057C23.9039 15.826 24.0052 15.5821 24.0055 15.3277L24.0084 11.491C24.0084 11.2367 23.9074 10.9929 23.7278 10.8131C23.5481 10.6332 23.3044 10.532 23.0501 10.5318ZM23.0415 21.0828C22.7875 21.0828 22.5438 21.1836 22.3639 21.3631C22.1841 21.5425 22.0828 21.786 22.0823 22.0401L22.0785 25.8768C22.0782 26.1312 22.179 26.3753 22.3588 26.5553C22.5385 26.7354 22.7823 26.8367 23.0367 26.8369C23.2911 26.8372 23.5352 26.7364 23.7152 26.5567C23.8953 26.377 23.9966 26.1331 23.9969 25.8787L23.9997 22.042C23.9997 21.7878 23.8988 21.5439 23.7191 21.3641C23.5395 21.1842 23.2957 21.0831 23.0415 21.0828ZM22.0727 32.5911C22.0729 32.4651 22.0978 32.3404 22.1461 32.2241C22.1944 32.1078 22.2652 32.0021 22.3544 31.9131C22.4435 31.8241 22.5493 31.7536 22.6657 31.7055C22.7822 31.6574 22.9069 31.6327 23.0329 31.6329C23.1588 31.633 23.2835 31.6579 23.3999 31.7062C23.5162 31.7546 23.6219 31.8253 23.7108 31.9145C23.7998 32.0036 23.8704 32.1094 23.9185 32.2259C23.9665 32.3423 23.9912 32.467 23.9911 32.593L23.9882 36.4297C23.988 36.6841 23.8867 36.928 23.7066 37.1077C23.5265 37.2874 23.2825 37.3882 23.0281 37.388C22.7737 37.3877 22.5298 37.2864 22.3501 37.1063C22.1704 36.9263 22.0696 36.6822 22.0699 36.4278L22.0727 32.5911Z" fill="white"></path></svg>