<svg xmlns="http://www.w3.org/2000/svg" width="53" height="67" viewBox="0 0 53 67" fill="none"><path d="M26.5 0.583374C8.95542 15.5605 0.166672 28.4967 0.166672 39.425C0.166672 55.8175 12.675 66.4167 26.5 66.4167C40.325 66.4167 52.8333 55.8175 52.8333 39.425C52.8333 28.4967 44.0446 15.5605 26.5 0.583374ZM12.7738 40.0834C13.9917 40.0834 14.9792 40.9392 15.2096 42.1242C16.5592 49.4317 22.7146 51.9334 27.1913 51.5713C28.6067 51.5055 29.7917 52.6246 29.7917 54.04C29.7917 55.3567 28.7383 56.443 27.4217 56.5088C20.4104 56.9367 12.2142 52.9209 10.3379 42.9471C10.2807 42.5942 10.3008 42.2331 10.3969 41.8887C10.493 41.5443 10.6627 41.2249 10.8944 40.9526C11.126 40.6803 11.414 40.4615 11.7385 40.3114C12.063 40.1613 12.4162 40.0835 12.7738 40.0834Z" fill="white"></path></svg>