<svg xmlns="http://www.w3.org/2000/svg" id="Layer_2" data-name="Layer 2" viewBox="0 0 52.67 65.83"><defs><style>      .cls-1 {        fill: #fb9110;      }    </style></defs><g id="Layer_1-2" data-name="Layer 1"><path class="cls-1" d="M26.33,0C8.79,14.98,0,27.91,0,38.84c0,16.39,12.51,26.99,26.33,26.99s26.33-10.6,26.33-26.99c0-10.93-8.79-23.86-26.33-38.84ZM12.61,39.5c1.22,0,2.21,.86,2.44,2.04,1.35,7.31,7.5,9.81,11.98,9.45,1.42-.07,2.6,1.05,2.6,2.47,0,1.32-1.05,2.4-2.37,2.47-7.01,.43-15.21-3.59-17.08-13.56-.06-.35-.04-.71,.06-1.06,.1-.34,.27-.66,.5-.94,.23-.27,.52-.49,.84-.64,.32-.15,.68-.23,1.04-.23Z"></path></g></svg>